<svg xmlns="http://www.w3.org/2000/svg" viewBox="0 0 64 64" id="transistor"><g data-name="Semiconductor-transistor-chip-electronics"><polygon fill="#898890" points="47 47 17 47 20 44 44 44 47 47"></polygon><polygon fill="#e0e0e2" points="44 47 44 50 43 51 43 61 39 61 39 51 38 50 38 47 44 47"></polygon><polygon fill="#e0e0e2" points="35 47 35 50 34 51 34 61 30 61 30 51 29 50 29 47 35 47"></polygon><polygon fill="#e0e0e2" points="26 47 26 50 25 51 25 61 21 61 21 51 20 50 20 47 26 47"></polygon><polygon fill="#57565c" points="20 32 20 44 17 47 17 29 20 32"></polygon><polygon fill="#57565c" points="47 29 47 47 44 44 44 32 47 29"></polygon><polygon fill="#898890" points="47 29 44 32 20 32 17 29 47 29"></polygon><rect width="24" height="12" x="20" y="32" fill="#2d2d30"></rect><path fill="#e0e0e2" d="M46,3V26H44v3H20V26H18V3ZM35,10a3,3,0,1,0-3,3A3,3,0,0,0,35,10Z"></path><path d="M32,14a4,4,0,1,0-4-4A4,4,0,0,0,32,14Zm0-6a2,2,0,1,1-2,2A2,2,0,0,1,32,8Z"></path><path d="M47,28H45V27h1a1,1,0,0,0,1-1V3a1,1,0,0,0-1-1H18a1,1,0,0,0-1,1V26a1,1,0,0,0,1,1h1v1H17a1,1,0,0,0-1,1V47a1,1,0,0,0,1,1h2v2a1.033,1.033,0,0,0,.29.71l.71.7V61a1,1,0,0,0,1,1h4a1,1,0,0,0,1-1V51.41l.71-.7A1.033,1.033,0,0,0,27,50V48h1v2a1.033,1.033,0,0,0,.29.71l.71.7V61a1,1,0,0,0,1,1h4a1,1,0,0,0,1-1V51.41l.71-.7A1.033,1.033,0,0,0,36,50V48h1v2a1.033,1.033,0,0,0,.29.71l.71.7V61a1,1,0,0,0,1,1h4a1,1,0,0,0,1-1V51.41l.71-.7A1.033,1.033,0,0,0,45,50V48h2a1,1,0,0,0,1-1V29A1,1,0,0,0,47,28ZM19,43.59l-1,1V31.41l1,1Zm6,6-.71.7A1.033,1.033,0,0,0,24,51v9H22V51a1.033,1.033,0,0,0-.29-.71l-.71-.7V48h4Zm9,0-.71.7A1.033,1.033,0,0,0,33,51v9H31V51a1.033,1.033,0,0,0-.29-.71l-.71-.7V48h4Zm9,0-.71.7A1.033,1.033,0,0,0,42,51v9H40V51a1.033,1.033,0,0,0-.29-.71l-.71-.7V48h4ZM19.41,46l1-1H43.59l1,1ZM21,43V33H43V43ZM43.59,31H20.41l-1-1H44.59ZM44,25a1,1,0,0,0-1,1v2H21V26a1,1,0,0,0-1-1H19V4H45V25Zm2,19.59-1-1V32.41l1-1Z"></path></g></svg>